# xmcd CD database file generated by OrangeCD 5.2
#
# Track frame offsets:
#	150
#	29573
#	48568
#	92861
#	132973
#	157291
#	194962
#	233217
#	268029
#
# Disc length: 4124 seconds
#
# Revision: 0
# Processed by: cddbd v1.5.2PL0 Copyright (c) Steve Scherf et al.
# Submitted via: OrangeCD 5.2
#
DISCID=8c101a09
DTITLE=Alone Together - Steve Davis Quartet
DYEAR=1900
DGENRE=Jazz-main
TTITLE0=Milestones
TTITLE1=My Foolish Heart
TTITLE2=Surrey With The Fringe On Top
TTITLE3=Alone Together
TTITLE4=The day You said Goodby
TTITLE5=United
TTITLE6=We'll Be Together Again
TTITLE7=UMMG
TTITLE8=Short Cake
EXTD=
EXTT0=
EXTT1=
EXTT2=
EXTT3=
EXTT4=
EXTT5=
EXTT6=
EXTT7=
EXTT8=
PLAYORDER=
